<?xml version="1.0" encoding="UTF-8"?>
<svg xmlns="http://www.w3.org/2000/svg" xmlns:xlink="http://www.w3.org/1999/xlink" width="810pt" height="809.999993pt" viewBox="0 0 810 809.999993" version="1.2">
<defs>
<clipPath id="clip1">
  <path d="M 59 12.179688 L 751 12.179688 L 751 635 L 59 635 Z M 59 12.179688 "/>
</clipPath>
<clipPath id="clip2">
  <path d="M 32.515625 610 L 60 610 L 60 638 L 32.515625 638 Z M 32.515625 610 "/>
</clipPath>
</defs>
<g id="surface1">
<path style=" stroke:none;fill-rule:nonzero;fill:rgb(90.19928%,33.729553%,30.198669%);fill-opacity:1;" d="M 476.683594 253.097656 C 461 254.828125 446.648438 261.078125 435.085938 270.660156 L 434.964844 270.925781 C 433.570312 255.773438 428.136719 240.925781 418.101562 228.382812 L 404.785156 211.726562 L 391.484375 228.382812 C 381.449219 240.9375 376.015625 255.785156 374.621094 270.925781 L 374.5 270.660156 C 362.9375 261.078125 348.585938 254.828125 332.90625 253.097656 L 311.761719 250.703125 L 314.152344 271.855469 C 318.273438 308.972656 347.507812 338.238281 384.585938 342.363281 L 403.855469 344.492188 L 403.855469 344.757812 L 404.652344 344.625 L 404.679688 344.625 L 404.785156 344.757812 L 404.894531 344.625 L 404.917969 344.625 L 405.71875 344.757812 L 405.71875 344.492188 L 424.988281 342.363281 C 462.0625 338.238281 491.300781 308.972656 495.421875 271.855469 L 497.8125 250.703125 Z M 476.683594 253.097656 "/>
<path style=" stroke:none;fill-rule:nonzero;fill:rgb(45.878601%,60.389709%,79.998779%);fill-opacity:1;" d="M 574.875 485.796875 L 553.640625 469.804688 C 577.972656 437.386719 590.835938 398.753906 590.835938 358.058594 C 590.835938 255.359375 507.378906 171.816406 404.785156 171.816406 C 302.191406 171.816406 218.734375 255.359375 218.734375 358.058594 C 218.734375 398.742188 231.601562 437.371094 255.917969 469.792969 L 234.683594 485.78125 C 206.855469 448.707031 192.15625 404.554688 192.15625 358.058594 C 192.15625 240.699219 287.546875 145.210938 404.785156 145.210938 C 522.023438 145.210938 617.417969 240.699219 617.417969 358.058594 C 617.417969 404.554688 602.703125 448.71875 574.875 485.796875 Z M 574.875 485.796875 "/>
<g clip-path="url(#clip1)" clip-rule="nonzero">
<path style=" stroke:none;fill-rule:nonzero;fill:rgb(45.878601%,60.389709%,79.998779%);fill-opacity:1;" d="M 612.113281 634.792969 L 596.152344 613.507812 C 677.21875 552.539062 723.730469 459.429688 723.730469 358.058594 C 723.730469 182.019531 580.644531 38.785156 404.785156 38.785156 C 228.929688 38.785156 85.84375 182.019531 85.84375 358.058594 C 85.84375 459.429688 132.34375 552.523438 213.40625 613.480469 L 197.445312 634.765625 C 109.628906 568.726562 59.265625 467.878906 59.265625 358.058594 C 59.265625 167.332031 214.269531 12.179688 404.785156 12.179688 C 595.300781 12.179688 750.308594 167.332031 750.308594 358.058594 C 750.308594 467.878906 699.929688 568.742188 612.113281 634.792969 Z M 612.113281 634.792969 "/>
</g>
<path style=" stroke:none;fill-rule:nonzero;fill:rgb(99.609375%,37.249756%,33.329773%);fill-opacity:1;" d="M 404.785156 211.726562 L 391.484375 228.382812 C 368.1875 257.527344 368.1875 298.953125 391.484375 328.101562 L 404.785156 344.757812 L 418.089844 328.101562 C 441.386719 298.953125 441.386719 257.527344 418.089844 228.382812 Z M 404.785156 211.726562 "/>
<path style=" stroke:none;fill-rule:nonzero;fill:rgb(100%,86.268616%,45.098877%);fill-opacity:1;" d="M 763.597656 637.425781 C 756.261719 637.425781 750.308594 631.464844 750.308594 624.121094 C 750.308594 616.777344 756.261719 610.820312 763.597656 610.820312 C 770.933594 610.820312 776.886719 616.777344 776.886719 624.121094 C 776.886719 631.464844 770.933594 637.425781 763.597656 637.425781 Z M 763.597656 637.425781 "/>
<g clip-path="url(#clip2)" clip-rule="nonzero">
<path style=" stroke:none;fill-rule:nonzero;fill:rgb(100%,86.268616%,45.098877%);fill-opacity:1;" d="M 45.972656 637.425781 C 38.636719 637.425781 32.683594 631.464844 32.683594 624.121094 C 32.683594 616.777344 38.636719 610.820312 45.972656 610.820312 C 53.308594 610.820312 59.265625 616.777344 59.265625 624.121094 C 59.265625 631.464844 53.308594 637.425781 45.972656 637.425781 Z M 45.972656 637.425781 "/>
</g>
<path style=" stroke:none;fill-rule:nonzero;fill:rgb(100%,85.879517%,67.449951%);fill-opacity:1;" d="M 738.761719 677.335938 L 683.863281 677.335938 L 683.863281 717.246094 L 715.675781 717.246094 C 729.007812 717.246094 741.457031 710.578125 748.847656 699.472656 L 749.816406 698.019531 C 755.71875 689.175781 749.378906 677.335938 738.761719 677.335938 Z M 738.761719 677.335938 "/>
<path style=" stroke:none;fill-rule:nonzero;fill:rgb(100%,85.879517%,67.449951%);fill-opacity:1;" d="M 61.523438 698.019531 L 62.492188 699.472656 C 69.882812 710.578125 82.335938 717.246094 95.664062 717.246094 L 127.476562 717.246094 L 127.476562 677.335938 L 72.578125 677.335938 C 61.960938 677.335938 55.636719 689.175781 61.523438 698.019531 Z M 61.523438 698.019531 "/>
<path style=" stroke:none;fill-rule:nonzero;fill:rgb(34.118652%,45.098877%,59.999084%);fill-opacity:1;" d="M 627.421875 664.03125 C 594.480469 664.03125 561.839844 657.738281 531.246094 645.488281 L 530.117188 645.035156 C 517.546875 640.007812 504.152344 637.425781 490.621094 637.425781 L 318.949219 637.425781 C 305.421875 637.425781 292.027344 640.007812 279.46875 645.035156 L 278.339844 645.488281 C 247.746094 657.738281 215.09375 664.03125 182.148438 664.03125 L 125.710938 664.03125 L 125.710938 730.546875 L 190.003906 730.546875 C 217.832031 730.546875 245.488281 726.050781 271.894531 717.246094 L 271.894531 810.367188 L 537.679688 810.367188 L 537.679688 717.246094 C 564.085938 726.050781 591.742188 730.546875 619.570312 730.546875 L 683.863281 730.546875 L 683.863281 664.03125 Z M 627.421875 664.03125 "/>
<path style=" stroke:none;fill-rule:nonzero;fill:rgb(91.758728%,91.758728%,91.758728%);fill-opacity:1;" d="M 404.785156 637.425781 L 364.917969 703.941406 L 404.785156 783.761719 L 444.65625 703.941406 Z M 404.785156 637.425781 "/>
<path style=" stroke:none;fill-rule:nonzero;fill:rgb(100%,85.879517%,67.449951%);fill-opacity:1;" d="M 524.390625 517.699219 C 524.390625 519.65625 524.34375 521.613281 524.246094 523.570312 C 524.152344 525.527344 524.007812 527.484375 523.816406 529.433594 C 523.621094 531.382812 523.382812 533.328125 523.097656 535.265625 C 522.808594 537.203125 522.472656 539.132812 522.09375 541.054688 C 521.710938 542.976562 521.28125 544.886719 520.804688 546.789062 C 520.332031 548.691406 519.808594 550.578125 519.242188 552.453125 C 518.671875 554.328125 518.058594 556.1875 517.398438 558.03125 C 516.738281 559.878906 516.035156 561.703125 515.285156 563.515625 C 514.539062 565.324219 513.746094 567.117188 512.90625 568.886719 C 512.070312 570.660156 511.191406 572.410156 510.269531 574.136719 C 509.34375 575.863281 508.378906 577.570312 507.375 579.25 C 506.367188 580.929688 505.320312 582.585938 504.234375 584.214844 C 503.144531 585.84375 502.019531 587.445312 500.851562 589.019531 C 499.6875 590.59375 498.484375 592.136719 497.242188 593.652344 C 496 595.167969 494.722656 596.648438 493.40625 598.101562 C 492.09375 599.554688 490.742188 600.972656 489.359375 602.359375 C 487.976562 603.742188 486.558594 605.09375 485.109375 606.410156 C 483.65625 607.726562 482.175781 609.003906 480.664062 610.25 C 479.148438 611.492188 477.605469 612.695312 476.035156 613.863281 C 474.460938 615.03125 472.863281 616.160156 471.234375 617.246094 C 469.609375 618.335938 467.953125 619.382812 466.277344 620.390625 C 464.597656 621.398438 462.894531 622.363281 461.167969 623.289062 C 459.441406 624.210938 457.695312 625.09375 455.925781 625.929688 C 454.15625 626.769531 452.367188 627.5625 450.558594 628.3125 C 448.75 629.0625 446.921875 629.765625 445.078125 630.425781 C 443.238281 631.085938 441.378906 631.699219 439.507812 632.269531 C 437.632812 632.839844 435.746094 633.359375 433.847656 633.835938 C 431.949219 634.3125 430.039062 634.742188 428.121094 635.125 C 426.199219 635.507812 424.273438 635.84375 422.335938 636.128906 C 420.398438 636.417969 418.457031 636.65625 416.511719 636.847656 C 414.5625 637.039062 412.609375 637.183594 410.65625 637.28125 C 408.699219 637.378906 406.742188 637.425781 404.785156 637.425781 C 402.828125 637.425781 400.871094 637.378906 398.917969 637.28125 C 396.964844 637.183594 395.011719 637.039062 393.0625 636.847656 C 391.117188 636.65625 389.171875 636.417969 387.238281 636.128906 C 385.300781 635.84375 383.371094 635.507812 381.453125 635.125 C 379.535156 634.742188 377.625 634.3125 375.726562 633.835938 C 373.828125 633.359375 371.941406 632.839844 370.066406 632.269531 C 368.195312 631.699219 366.335938 631.085938 364.492188 630.425781 C 362.648438 629.765625 360.824219 629.0625 359.015625 628.3125 C 357.207031 627.5625 355.417969 626.769531 353.648438 625.929688 C 351.878906 625.09375 350.132812 624.210938 348.40625 623.289062 C 346.679688 622.363281 344.976562 621.398438 343.296875 620.390625 C 341.617188 619.382812 339.964844 618.335938 338.339844 617.246094 C 336.710938 616.160156 335.109375 615.03125 333.539062 613.863281 C 331.964844 612.695312 330.421875 611.492188 328.910156 610.25 C 327.398438 609.003906 325.914062 607.726562 324.464844 606.410156 C 323.015625 605.09375 321.597656 603.742188 320.214844 602.359375 C 318.828125 600.972656 317.480469 599.554688 316.164062 598.101562 C 314.851562 596.648438 313.574219 595.167969 312.332031 593.652344 C 311.089844 592.136719 309.886719 590.59375 308.71875 589.019531 C 307.554688 587.445312 306.425781 585.84375 305.339844 584.214844 C 304.25 582.585938 303.203125 580.929688 302.199219 579.25 C 301.191406 577.570312 300.226562 575.863281 299.304688 574.136719 C 298.382812 572.410156 297.503906 570.660156 296.664062 568.886719 C 295.828125 567.117188 295.035156 565.324219 294.285156 563.515625 C 293.539062 561.703125 292.832031 559.878906 292.175781 558.03125 C 291.515625 556.1875 290.902344 554.328125 290.332031 552.453125 C 289.765625 550.578125 289.242188 548.691406 288.765625 546.789062 C 288.292969 544.886719 287.863281 542.976562 287.480469 541.054688 C 287.097656 539.132812 286.765625 537.203125 286.476562 535.265625 C 286.191406 533.328125 285.949219 531.382812 285.757812 529.433594 C 285.566406 527.484375 285.421875 525.527344 285.328125 523.570312 C 285.230469 521.613281 285.183594 519.65625 285.183594 517.699219 C 285.183594 515.738281 285.230469 513.78125 285.328125 511.824219 C 285.421875 509.867188 285.566406 507.910156 285.757812 505.960938 C 285.949219 504.011719 286.191406 502.066406 286.476562 500.128906 C 286.765625 498.191406 287.097656 496.261719 287.480469 494.339844 C 287.863281 492.417969 288.292969 490.507812 288.765625 488.605469 C 289.242188 486.703125 289.765625 484.816406 290.332031 482.941406 C 290.902344 481.066406 291.515625 479.207031 292.175781 477.363281 C 292.832031 475.515625 293.539062 473.691406 294.285156 471.878906 C 295.035156 470.070312 295.828125 468.277344 296.664062 466.507812 C 297.503906 464.734375 298.382812 462.984375 299.304688 461.257812 C 300.226562 459.53125 301.191406 457.824219 302.199219 456.144531 C 303.203125 454.464844 304.25 452.808594 305.339844 451.179688 C 306.425781 449.550781 307.554688 447.949219 308.71875 446.375 C 309.886719 444.800781 311.089844 443.257812 312.332031 441.742188 C 313.574219 440.226562 314.851562 438.746094 316.164062 437.292969 C 317.480469 435.839844 318.828125 434.421875 320.214844 433.035156 C 321.597656 431.652344 323.015625 430.300781 324.464844 428.984375 C 325.914062 427.667969 327.398438 426.390625 328.910156 425.144531 C 330.421875 423.902344 331.964844 422.699219 333.539062 421.53125 C 335.109375 420.363281 336.710938 419.234375 338.339844 418.148438 C 339.964844 417.058594 341.617188 416.011719 343.296875 415.003906 C 344.976562 413.996094 346.679688 413.03125 348.40625 412.105469 C 350.132812 411.183594 351.878906 410.300781 353.648438 409.464844 C 355.417969 408.625 357.207031 407.832031 359.015625 407.082031 C 360.824219 406.332031 362.648438 405.628906 364.492188 404.96875 C 366.335938 404.308594 368.195312 403.695312 370.066406 403.125 C 371.941406 402.554688 373.828125 402.035156 375.726562 401.558594 C 377.625 401.082031 379.535156 400.652344 381.453125 400.269531 C 383.371094 399.886719 385.300781 399.550781 387.238281 399.265625 C 389.171875 398.976562 391.117188 398.738281 393.0625 398.546875 C 395.011719 398.355469 396.964844 398.210938 398.917969 398.113281 C 400.871094 398.015625 402.828125 397.96875 404.785156 397.96875 C 406.742188 397.96875 408.699219 398.015625 410.65625 398.113281 C 412.609375 398.210938 414.5625 398.355469 416.511719 398.546875 C 418.457031 398.738281 420.398438 398.976562 422.335938 399.265625 C 424.273438 399.550781 426.199219 399.886719 428.121094 400.269531 C 430.039062 400.652344 431.949219 401.082031 433.847656 401.558594 C 435.746094 402.035156 437.632812 402.554688 439.507812 403.125 C 441.378906 403.695312 443.238281 404.308594 445.078125 404.96875 C 446.921875 405.628906 448.75 406.332031 450.558594 407.082031 C 452.367188 407.832031 454.15625 408.625 455.925781 409.464844 C 457.695312 410.300781 459.441406 411.183594 461.167969 412.105469 C 462.894531 413.03125 464.597656 413.996094 466.273438 415.003906 C 467.953125 416.011719 469.609375 417.058594 471.234375 418.148438 C 472.863281 419.234375 474.460938 420.363281 476.035156 421.53125 C 477.605469 422.699219 479.148438 423.902344 480.664062 425.144531 C 482.175781 426.390625 483.65625 427.667969 485.109375 428.984375 C 486.558594 430.300781 487.976562 431.652344 489.359375 433.035156 C 490.742188 434.421875 492.09375 435.839844 493.40625 437.292969 C 494.722656 438.746094 496 440.226562 497.242188 441.742188 C 498.484375 443.257812 499.6875 444.800781 500.851562 446.375 C 502.019531 447.949219 503.144531 449.550781 504.234375 451.179688 C 505.320312 452.808594 506.367188 454.464844 507.375 456.144531 C 508.378906 457.824219 509.34375 459.53125 510.269531 461.257812 C 511.191406 462.984375 512.070312 464.734375 512.90625 466.507812 C 513.746094 468.277344 514.539062 470.070312 515.285156 471.878906 C 516.035156 473.691406 516.738281 475.515625 517.398438 477.363281 C 518.058594 479.207031 518.671875 481.066406 519.242188 482.941406 C 519.808594 484.816406 520.332031 486.703125 520.804688 488.605469 C 521.28125 490.507812 521.710938 492.417969 522.09375 494.339844 C 522.472656 496.261719 522.808594 498.191406 523.097656 500.128906 C 523.382812 502.066406 523.621094 504.011719 523.816406 505.960938 C 524.007812 507.910156 524.152344 509.867188 524.246094 511.824219 C 524.34375 513.78125 524.390625 515.738281 524.390625 517.699219 Z M 524.390625 517.699219 "/>
<path style=" stroke:none;fill-rule:nonzero;fill:rgb(28.62854%,34.509277%,40.388489%);fill-opacity:1;" d="M 520.644531 488.457031 C 507.59375 436.496094 460.75 397.96875 404.785156 397.96875 C 348.824219 397.96875 301.980469 436.496094 288.929688 488.457031 C 321.460938 464.976562 361.53125 451.183594 404.785156 451.183594 C 448.042969 451.183594 488.109375 464.976562 520.644531 488.457031 Z M 520.644531 488.457031 "/>
<path style=" stroke:none;fill-rule:nonzero;fill:rgb(25.099182%,30.198669%,34.899902%);fill-opacity:1;" d="M 351.628906 537.652344 C 333.316406 537.652344 318.40625 522.738281 318.40625 504.394531 L 331.695312 504.394531 C 331.695312 515.394531 340.640625 524.347656 351.628906 524.347656 C 362.621094 524.347656 371.5625 515.394531 371.5625 504.394531 L 384.851562 504.394531 C 384.851562 522.738281 369.941406 537.652344 351.628906 537.652344 Z M 351.628906 537.652344 "/>
<path style=" stroke:none;fill-rule:nonzero;fill:rgb(25.099182%,30.198669%,34.899902%);fill-opacity:1;" d="M 457.945312 537.652344 C 439.632812 537.652344 424.71875 522.738281 424.71875 504.394531 L 438.011719 504.394531 C 438.011719 515.394531 446.953125 524.347656 457.945312 524.347656 C 468.933594 524.347656 477.878906 515.394531 477.878906 504.394531 L 491.167969 504.394531 C 491.167969 522.738281 476.257812 537.652344 457.945312 537.652344 Z M 457.945312 537.652344 "/>
</g>
</svg>
